<svg xmlns="http://www.w3.org/2000/svg" width="177.468" height="53.873" viewBox="0 0 177.468 53.873">
  <g id="Group_6" data-name="Group 6" transform="translate(-2.746 -1.67)">
    <g id="Group_5" data-name="Group 5">
      <g id="Group_1" data-name="Group 1">
        <path id="Path_1" data-name="Path 1" d="M3.679,40.553c-.016.1-.029.225-.038.36a.714.714,0,0,0,.088.385.8.8,0,0,0,.363.31,1.843,1.843,0,0,0,.779.128,2.063,2.063,0,0,0,.774-.125,1.532,1.532,0,0,0,.491-.3,1.188,1.188,0,0,0,.267-.353,1.409,1.409,0,0,0,.108-.3.781.781,0,0,0-.007-.412.556.556,0,0,0-.221-.27,1.582,1.582,0,0,0-.4-.183c-.159-.05-.337-.1-.538-.15s-.4-.1-.566-.149-.3-.086-.421-.125a2.389,2.389,0,0,1-.308-.121,1.387,1.387,0,0,1-.229-.137.971.971,0,0,1-.371-.566,1.5,1.5,0,0,1,0-.615,1.774,1.774,0,0,1,.363-.79,2.29,2.29,0,0,1,.637-.545,2.969,2.969,0,0,1,.8-.316,3.633,3.633,0,0,1,.858-.1c.1,0,.222.006.366.016a2.279,2.279,0,0,1,.434.079,1.948,1.948,0,0,1,.42.18,1.061,1.061,0,0,1,.345.316.928.928,0,0,1,.142.283,1.281,1.281,0,0,1,.051.276,1.329,1.329,0,0,1-.009.254c-.011.08-.022.151-.033.212H6.962a.879.879,0,0,0-.034-.462.589.589,0,0,0-.233-.28,1.018,1.018,0,0,0-.367-.137,2.439,2.439,0,0,0-.433-.038,1.9,1.9,0,0,0-1.037.263,1.073,1.073,0,0,0-.5.712.8.8,0,0,0-.009.342.473.473,0,0,0,.146.242.961.961,0,0,0,.3.17c.128.047.277.093.449.138.334.094.6.169.808.225s.37.1.492.145a1.893,1.893,0,0,1,.288.121,2.427,2.427,0,0,1,.22.142.977.977,0,0,1,.371.641,1.621,1.621,0,0,1,.008.317,1.312,1.312,0,0,1-.038.241,2.131,2.131,0,0,1-.307.742,2.3,2.3,0,0,1-.579.6,2.769,2.769,0,0,1-.833.4,3.727,3.727,0,0,1-1.054.142q-.175,0-.417-.021a2.575,2.575,0,0,1-.487-.092,1.808,1.808,0,0,1-.467-.208A.992.992,0,0,1,2.9,41.77a1.157,1.157,0,0,1-.125-.338,1.816,1.816,0,0,1-.033-.329,2.048,2.048,0,0,1,.021-.3c.014-.094.03-.177.046-.25Z" fill="#0055a5"/>
        <path id="Path_2" data-name="Path 2" d="M9.152,40.362a2.155,2.155,0,0,0-.074.6,1.109,1.109,0,0,0,.112.479.731.731,0,0,0,.308.317,1.089,1.089,0,0,0,.529.113,1.265,1.265,0,0,0,.7-.209A1.162,1.162,0,0,0,11.193,41h.783a3.533,3.533,0,0,1-.158.4,1.483,1.483,0,0,1-.383.479c-.055.05-.129.108-.22.175a1.7,1.7,0,0,1-.33.183,2.461,2.461,0,0,1-.441.141,2.436,2.436,0,0,1-.566.059,1.453,1.453,0,0,1-1.346-.575,2.115,2.115,0,0,1-.146-1.566,4.141,4.141,0,0,1,.409-1.12,2.239,2.239,0,0,1,.84-.846,1.5,1.5,0,0,1,.342-.166,2.9,2.9,0,0,1,.337-.092,2.282,2.282,0,0,1,.3-.042c.089-.006.164-.008.226-.008a1.979,1.979,0,0,1,.761.125,1.09,1.09,0,0,1,.454.329,1.113,1.113,0,0,1,.213.458,1.944,1.944,0,0,1,.041.517,3.128,3.128,0,0,1-.062.5c-.033.161-.061.3-.083.408Zm2.324-.55a2.668,2.668,0,0,0,.051-.362,1.05,1.05,0,0,0-.046-.405.68.68,0,0,0-.242-.329.878.878,0,0,0-.537-.137,1.417,1.417,0,0,0-.4.063,1.206,1.206,0,0,0-.4.208,1.567,1.567,0,0,0-.35.379,1.753,1.753,0,0,0-.242.583Z" fill="#0055a5"/>
        <path id="Path_3" data-name="Path 3" d="M13.642,38.979c.034-.144.06-.288.079-.429s.041-.282.063-.421h.792l-.158.808a1.482,1.482,0,0,1,.25-.366,1.364,1.364,0,0,1,.3-.246,1.508,1.508,0,0,1,.326-.146,1.882,1.882,0,0,1,.3-.067,2.5,2.5,0,0,1,.316-.025c.089,0,.166,0,.233.009l-.167.766a1.117,1.117,0,0,0-.141-.033.5.5,0,0,0-.1-.009h-.125a1.609,1.609,0,0,0-.592.1,1.1,1.1,0,0,0-.4.266,1.306,1.306,0,0,0-.258.4,3.009,3.009,0,0,0-.154.5l-.475,2.224h-.792Z" fill="#0055a5"/>
        <path id="Path_4" data-name="Path 4" d="M16.391,38.129h.875l.625,3.316L19.9,38.129h.867l-2.724,4.182H17.25Z" fill="#0055a5"/>
        <path id="Path_5" data-name="Path 5" d="M21.665,38.129h.783l-.892,4.182h-.783Zm.3-1.816h.941l-.184.858h-.941Z" fill="#0055a5"/>
        <path id="Path_6" data-name="Path 6" d="M26.58,40.92a2.035,2.035,0,0,1-.238.554,1.852,1.852,0,0,1-.409.462,2.142,2.142,0,0,1-.553.325,2.17,2.17,0,0,1-.675.15l-.35.383c.044-.011.093-.021.146-.029a1.245,1.245,0,0,1,.187-.013.643.643,0,0,1,.3.059.443.443,0,0,1,.171.146.414.414,0,0,1,.07.191.638.638,0,0,1,0,.2c-.005.017-.022.065-.049.146a.752.752,0,0,1-.167.254,1.158,1.158,0,0,1-.354.241,1.436,1.436,0,0,1-.612.109,1.621,1.621,0,0,1-.454-.05,1.643,1.643,0,0,1-.288-.117l.225-.308a.8.8,0,0,0,.188.079,1.222,1.222,0,0,0,.345.037.648.648,0,0,0,.35-.083.363.363,0,0,0,.167-.25.249.249,0,0,0-.009-.174.222.222,0,0,0-.095-.1.368.368,0,0,0-.133-.041.974.974,0,0,0-.121-.008.62.62,0,0,0-.155.016c-.042.011-.092.028-.154.05l-.1-.142.55-.591a1.626,1.626,0,0,1-.75-.254,1.191,1.191,0,0,1-.4-.483,1.55,1.55,0,0,1-.129-.642,3.581,3.581,0,0,1,.075-.72,3.522,3.522,0,0,1,.429-1.142,2.567,2.567,0,0,1,.625-.7,2.085,2.085,0,0,1,.691-.354,2.4,2.4,0,0,1,.638-.1,2.464,2.464,0,0,1,.262.017,1.6,1.6,0,0,1,.329.07,1.5,1.5,0,0,1,.325.154.777.777,0,0,1,.258.275.939.939,0,0,1,.176.513,2.954,2.954,0,0,1-.026.42h-.791c.005-.05.011-.123.017-.22a.724.724,0,0,0-.046-.292.589.589,0,0,0-.191-.254.68.68,0,0,0-.421-.108,1.076,1.076,0,0,0-.671.2,1.646,1.646,0,0,0-.421.467,2.1,2.1,0,0,0-.229.529c-.048.175-.079.3-.095.379a3.589,3.589,0,0,0-.092.621,1.56,1.56,0,0,0,.05.529.706.706,0,0,0,.237.37.757.757,0,0,0,.487.138,1.11,1.11,0,0,0,.442-.083,1,1,0,0,0,.321-.217,1.33,1.33,0,0,0,.216-.3,1.258,1.258,0,0,0,.121-.312Z" fill="#0055a5"/>
        <path id="Path_7" data-name="Path 7" d="M27.371,40.27a3.754,3.754,0,0,1,.266-.783A2.529,2.529,0,0,1,28.9,38.229a2.515,2.515,0,0,1,1.066-.208,1.834,1.834,0,0,1,.979.221,1.327,1.327,0,0,1,.513.55,1.655,1.655,0,0,1,.162.711,3.3,3.3,0,0,1-.063.709,3.365,3.365,0,0,1-.316.866,2.714,2.714,0,0,1-.541.713,2.479,2.479,0,0,1-.767.482,2.555,2.555,0,0,1-.974.18,1.967,1.967,0,0,1-.867-.171,1.351,1.351,0,0,1-.545-.463,1.49,1.49,0,0,1-.238-.691A2.662,2.662,0,0,1,27.371,40.27Zm.824-.05a2.832,2.832,0,0,0-.059.621,1.332,1.332,0,0,0,.114.525.842.842,0,0,0,.312.366.963.963,0,0,0,.541.138,1.409,1.409,0,0,0,.471-.088,1.434,1.434,0,0,0,.467-.283,2.054,2.054,0,0,0,.4-.517,2.722,2.722,0,0,0,.283-.795A1.636,1.636,0,0,0,30.648,39a.858.858,0,0,0-.8-.4,1.528,1.528,0,0,0-.433.071,1.482,1.482,0,0,0-.479.25,1.817,1.817,0,0,0-.437.495A2.516,2.516,0,0,0,28.195,40.22Z" fill="#0055a5"/>
        <path id="Path_8" data-name="Path 8" d="M35.984,36.3h1.157L39.05,41.27,40.1,36.3h.766l-1.274,6.015H38.524l-1.973-5.106-1.083,5.106h-.759Z" fill="#0055a5"/>
        <path id="Path_9" data-name="Path 9" d="M43.681,42.311A1.85,1.85,0,0,1,43.69,42c.011-.1.028-.206.05-.317a2.159,2.159,0,0,1-.4.408,1.815,1.815,0,0,1-.392.23,1.4,1.4,0,0,1-.357.1,2.266,2.266,0,0,1-.3.021,1.788,1.788,0,0,1-.616-.1,1.023,1.023,0,0,1-.409-.263.863.863,0,0,1-.2-.392,1.1,1.1,0,0,1,.009-.483,1.711,1.711,0,0,1,.088-.283,1.444,1.444,0,0,1,.179-.321,2.135,2.135,0,0,1,.292-.324,1.9,1.9,0,0,1,.432-.3,2.2,2.2,0,0,1,.4-.146,3.56,3.56,0,0,1,.416-.083c.138-.02.267-.032.387-.038s.221-.008.3-.008c.1,0,.188,0,.267,0s.177.01.3.021c.029-.128.05-.24.067-.338s.028-.18.034-.25a1.165,1.165,0,0,0,0-.187.3.3,0,0,0-.059-.15.442.442,0,0,0-.292-.216,1.394,1.394,0,0,0-.375-.059,1.116,1.116,0,0,0-.482.088.932.932,0,0,0-.292.2.738.738,0,0,0-.154.237c-.031.081-.051.141-.063.18H41.74a3.153,3.153,0,0,1,.142-.371,1.411,1.411,0,0,1,.317-.421,1.44,1.44,0,0,1,.333-.221,2.085,2.085,0,0,1,.375-.137,2.684,2.684,0,0,1,.383-.071A3.3,3.3,0,0,1,43.648,38a2.638,2.638,0,0,1,.445.038,1.844,1.844,0,0,1,.405.112,1.117,1.117,0,0,1,.316.192.594.594,0,0,1,.184.275.961.961,0,0,1,.046.345c-.009.1-.022.2-.038.3l-.458,2a1.089,1.089,0,0,0-.025.134c-.012.072-.026.158-.046.258s-.038.208-.054.325-.028.228-.034.333Zm.342-2.033a1.962,1.962,0,0,0-.2-.021c-.064,0-.143,0-.237,0-.078,0-.2,0-.371.013a2.288,2.288,0,0,0-.525.091,1.529,1.529,0,0,0-.5.255.8.8,0,0,0-.3.491.685.685,0,0,0-.012.225.54.54,0,0,0,.083.237.533.533,0,0,0,.221.188.946.946,0,0,0,.416.075,1.257,1.257,0,0,0,.992-.45,1.528,1.528,0,0,0,.15-.208,1.294,1.294,0,0,0,.1-.225c.027-.084.055-.179.083-.288S43.984,40.423,44.023,40.278Z" fill="#0055a5"/>
        <path id="Path_10" data-name="Path 10" d="M48.747,39.47c0-.05.011-.123.016-.22a.723.723,0,0,0-.045-.292.592.592,0,0,0-.192-.254A.678.678,0,0,0,48.1,38.6a1.078,1.078,0,0,0-.671.2,1.661,1.661,0,0,0-.421.467,2.131,2.131,0,0,0-.228.529c-.048.175-.079.3-.1.379a3.59,3.59,0,0,0-.092.621,1.586,1.586,0,0,0,.05.529.706.706,0,0,0,.237.37.762.762,0,0,0,.488.138,1.1,1.1,0,0,0,.441-.083.992.992,0,0,0,.321-.217,1.3,1.3,0,0,0,.216-.3,1.184,1.184,0,0,0,.121-.312h.792a1.811,1.811,0,0,1-.254.579,2.03,2.03,0,0,1-.442.475,2.14,2.14,0,0,1-.6.324,2.068,2.068,0,0,1-.715.121c-.073,0-.163,0-.272-.016a1.752,1.752,0,0,1-.337-.071,1.462,1.462,0,0,1-.349-.163.977.977,0,0,1-.3-.291,1.991,1.991,0,0,1-.13-.25,1.371,1.371,0,0,1-.092-.333,2.369,2.369,0,0,1-.017-.442,4.049,4.049,0,0,1,.08-.575,3.258,3.258,0,0,1,.408-1.087,2.67,2.67,0,0,1,.608-.7,2.153,2.153,0,0,1,.688-.367,2.3,2.3,0,0,1,.671-.108,2.432,2.432,0,0,1,.261.017,1.573,1.573,0,0,1,.329.07,1.51,1.51,0,0,1,.326.154.765.765,0,0,1,.257.275.931.931,0,0,1,.176.513,3.127,3.127,0,0,1-.025.42Z" fill="#0055a5"/>
        <path id="Path_11" data-name="Path 11" d="M50.829,38.129h.783l-.892,4.182h-.783Zm.3-1.816h.941l-.184.858h-.941Z" fill="#0055a5"/>
        <path id="Path_12" data-name="Path 12" d="M52.37,40.27a3.754,3.754,0,0,1,.266-.783,2.6,2.6,0,0,1,.5-.725,2.565,2.565,0,0,1,.767-.533,2.515,2.515,0,0,1,1.066-.208,1.834,1.834,0,0,1,.979.221,1.327,1.327,0,0,1,.513.55,1.655,1.655,0,0,1,.162.711,3.3,3.3,0,0,1-.063.709,3.365,3.365,0,0,1-.316.866,2.714,2.714,0,0,1-.541.713,2.479,2.479,0,0,1-.767.482,2.555,2.555,0,0,1-.974.18,1.967,1.967,0,0,1-.867-.171,1.351,1.351,0,0,1-.545-.463,1.49,1.49,0,0,1-.238-.691A2.662,2.662,0,0,1,52.37,40.27Zm.824-.05a2.833,2.833,0,0,0-.059.621,1.332,1.332,0,0,0,.114.525.842.842,0,0,0,.312.366.963.963,0,0,0,.541.138,1.409,1.409,0,0,0,.471-.088,1.434,1.434,0,0,0,.467-.283,2.054,2.054,0,0,0,.4-.517,2.723,2.723,0,0,0,.283-.795A1.636,1.636,0,0,0,55.647,39a.858.858,0,0,0-.795-.4,1.528,1.528,0,0,0-.433.071,1.482,1.482,0,0,0-.479.25,1.817,1.817,0,0,0-.437.495A2.516,2.516,0,0,0,53.194,40.22Z" fill="#0055a5"/>
        <path id="Path_13" data-name="Path 13" d="M58.142,38.612l.1-.483h.782l-.141.675c.033-.045.085-.108.158-.192a1.576,1.576,0,0,1,.288-.25,1.928,1.928,0,0,1,.441-.22,1.807,1.807,0,0,1,.62-.1,2.544,2.544,0,0,1,.388.041,1.174,1.174,0,0,1,.462.188.973.973,0,0,1,.342.429,1.236,1.236,0,0,1,.016.766L61,42.311h-.8l.566-2.657a1.773,1.773,0,0,0,.038-.392.547.547,0,0,0-.113-.325.711.711,0,0,0-.3-.212,1.057,1.057,0,0,0-.382-.071,1.275,1.275,0,0,0-.429.075,1.238,1.238,0,0,0-.4.233,1.565,1.565,0,0,0-.32.392,1.952,1.952,0,0,0-.212.549l-.509,2.408h-.783Z" fill="#0055a5"/>
        <path id="Path_14" data-name="Path 14" d="M64.973,42.311A1.85,1.85,0,0,1,64.982,42c.011-.1.027-.206.05-.317a2.159,2.159,0,0,1-.4.408,1.815,1.815,0,0,1-.392.23,1.4,1.4,0,0,1-.357.1,2.266,2.266,0,0,1-.3.021,1.788,1.788,0,0,1-.616-.1,1.023,1.023,0,0,1-.409-.263.863.863,0,0,1-.2-.392,1.1,1.1,0,0,1,.009-.483,1.711,1.711,0,0,1,.088-.283,1.444,1.444,0,0,1,.179-.321,2.135,2.135,0,0,1,.292-.324,1.9,1.9,0,0,1,.432-.3,2.2,2.2,0,0,1,.4-.146,3.56,3.56,0,0,1,.416-.083c.138-.02.267-.032.387-.038s.221-.008.3-.008c.1,0,.188,0,.267,0s.177.01.3.021c.029-.128.05-.24.067-.338s.028-.18.034-.25a1.163,1.163,0,0,0,0-.187.3.3,0,0,0-.059-.15.442.442,0,0,0-.292-.216,1.394,1.394,0,0,0-.375-.059,1.116,1.116,0,0,0-.482.088.932.932,0,0,0-.292.2.738.738,0,0,0-.154.237c-.031.081-.051.141-.063.18h-.783a3.153,3.153,0,0,1,.142-.371,1.411,1.411,0,0,1,.317-.421,1.44,1.44,0,0,1,.333-.221A2.085,2.085,0,0,1,64.2,38.1a2.685,2.685,0,0,1,.383-.071A3.3,3.3,0,0,1,64.94,38a2.638,2.638,0,0,1,.445.038,1.844,1.844,0,0,1,.4.112,1.117,1.117,0,0,1,.316.192.594.594,0,0,1,.184.275.961.961,0,0,1,.046.345c-.009.1-.022.2-.038.3l-.458,2a1.089,1.089,0,0,0-.025.134c-.012.072-.026.158-.046.258s-.038.208-.054.325-.028.228-.034.333Zm.342-2.033a1.962,1.962,0,0,0-.2-.021c-.064,0-.143,0-.237,0-.078,0-.2,0-.371.013a2.288,2.288,0,0,0-.525.091,1.529,1.529,0,0,0-.5.255.8.8,0,0,0-.3.491.685.685,0,0,0-.012.225.54.54,0,0,0,.083.237.533.533,0,0,0,.221.188.946.946,0,0,0,.416.075,1.257,1.257,0,0,0,.992-.45,1.528,1.528,0,0,0,.15-.208,1.294,1.294,0,0,0,.1-.225c.027-.084.055-.179.083-.288S65.276,40.423,65.315,40.278Z" fill="#0055a5"/>
        <path id="Path_15" data-name="Path 15" d="M68.347,36.305h.784l-1.275,6.006h-.783Z" fill="#0055a5"/>
        <path id="Path_16" data-name="Path 16" d="M75.86,36.305h.783l-1.133,5.34c-.005.022-.012.059-.02.112l-.029.175c-.011.064-.023.129-.034.2s-.019.127-.025.183h-.783l.125-.666c-.044.061-.1.13-.17.208a1.338,1.338,0,0,1-.3.233,2.115,2.115,0,0,1-.592.242,2.351,2.351,0,0,1-.508.067,2.068,2.068,0,0,1-.5-.076,1.194,1.194,0,0,1-.529-.3,1.366,1.366,0,0,1-.353-.642,2.356,2.356,0,0,1,.033-1.108,3.4,3.4,0,0,1,.375-1.029,2.715,2.715,0,0,1,.574-.708,2.238,2.238,0,0,1,.691-.412,2.14,2.14,0,0,1,.734-.134,1.49,1.49,0,0,1,.55.088,1.1,1.1,0,0,1,.341.2.787.787,0,0,1,.179.233c.036.078.063.139.079.184Zm-.791,3.857a2.21,2.21,0,0,0,.063-.729A1.311,1.311,0,0,0,75,39a.836.836,0,0,0-.3-.3,1,1,0,0,0-.537-.129,1.154,1.154,0,0,0-.509.1,1.287,1.287,0,0,0-.374.266,1.809,1.809,0,0,0-.272.358,3.369,3.369,0,0,0-.187.384,2.536,2.536,0,0,0-.112.341c-.025.1-.04.177-.046.221a3.725,3.725,0,0,0-.075.562,1.4,1.4,0,0,0,.058.517.749.749,0,0,0,.271.375.913.913,0,0,0,.554.146,1.266,1.266,0,0,0,.758-.217,1.755,1.755,0,0,0,.475-.5,2.327,2.327,0,0,0,.254-.562C75.017,40.378,75.052,40.245,75.069,40.162Z" fill="#0055a5"/>
        <path id="Path_17" data-name="Path 17" d="M77.668,40.362a2.2,2.2,0,0,0-.075.6,1.1,1.1,0,0,0,.113.479.734.734,0,0,0,.307.317,1.1,1.1,0,0,0,.53.113,1.265,1.265,0,0,0,.7-.209A1.162,1.162,0,0,0,79.709,41h.783a3.533,3.533,0,0,1-.158.4,1.5,1.5,0,0,1-.383.479c-.056.05-.129.108-.221.175a1.689,1.689,0,0,1-.329.183,2.487,2.487,0,0,1-.441.141,2.445,2.445,0,0,1-.567.059,1.451,1.451,0,0,1-1.345-.575,2.105,2.105,0,0,1-.146-1.566,4.174,4.174,0,0,1,.408-1.12,2.242,2.242,0,0,1,.841-.846,1.476,1.476,0,0,1,.342-.166,2.847,2.847,0,0,1,.337-.092,2.258,2.258,0,0,1,.3-.042c.089-.006.164-.008.225-.008a1.981,1.981,0,0,1,.762.125,1.1,1.1,0,0,1,.454.329,1.113,1.113,0,0,1,.213.458,1.986,1.986,0,0,1,.041.517,3.245,3.245,0,0,1-.062.5c-.034.161-.061.3-.083.408Zm2.324-.55a2.836,2.836,0,0,0,.051-.362A1.069,1.069,0,0,0,80,39.045a.68.68,0,0,0-.242-.329.88.88,0,0,0-.537-.137,1.429,1.429,0,0,0-.4.063,1.211,1.211,0,0,0-.4.208,1.59,1.59,0,0,0-.351.379,1.774,1.774,0,0,0-.241.583Z" fill="#0055a5"/>
        <path id="Path_18" data-name="Path 18" d="M86.873,36.3h.891l1.159,6.015h-.909L87.7,40.745H84.907l-.983,1.566h-.858ZM85.315,40.07H87.59l-.484-2.949Z" fill="#0055a5"/>
        <path id="Path_19" data-name="Path 19" d="M90.455,38.812a1.1,1.1,0,0,0,.025-.125,1.171,1.171,0,0,0,.029-.133c.008-.05.018-.108.03-.175s.024-.15.041-.25h.792l-.134.691a1.834,1.834,0,0,1,.425-.4A2.388,2.388,0,0,1,92.1,38.2a1.807,1.807,0,0,1,.405-.109,2.538,2.538,0,0,1,.312-.024,1.657,1.657,0,0,1,.629.12,1.1,1.1,0,0,1,.483.383,1.546,1.546,0,0,1,.25.671,2.825,2.825,0,0,1-.062.992,3.46,3.46,0,0,1-.371,1.007,2.656,2.656,0,0,1-.567.7,2.114,2.114,0,0,1-.695.4,2.293,2.293,0,0,1-.75.129,1.436,1.436,0,0,1-.75-.175.91.91,0,0,1-.4-.449l-.442,2.074h-.775Zm.425,1.533a3.953,3.953,0,0,0-.067.458,1.482,1.482,0,0,0,.038.509.792.792,0,0,0,.262.412.94.94,0,0,0,.616.171,1.733,1.733,0,0,0,.184-.013,1.311,1.311,0,0,0,.242-.054,1.388,1.388,0,0,0,.271-.121,1.2,1.2,0,0,0,.27-.221,1.835,1.835,0,0,0,.25-.333,2.581,2.581,0,0,0,.179-.362c.048-.12.086-.232.117-.338s.054-.2.07-.275a2.708,2.708,0,0,0,.075-.558,1.234,1.234,0,0,0-.075-.491.733.733,0,0,0-.274-.35.942.942,0,0,0-.542-.133,1.294,1.294,0,0,0-.767.212,1.769,1.769,0,0,0-.478.5,2.157,2.157,0,0,0-.258.566C90.939,40.109,90.9,40.251,90.88,40.345Z" fill="#0055a5"/>
        <path id="Path_20" data-name="Path 20" d="M95.578,38.979c.034-.144.059-.288.079-.429s.041-.282.062-.421h.792l-.158.808a1.538,1.538,0,0,1,.25-.366,1.392,1.392,0,0,1,.3-.246,1.5,1.5,0,0,1,.325-.146,1.907,1.907,0,0,1,.3-.067,2.509,2.509,0,0,1,.316-.025c.089,0,.166,0,.234.009l-.167.766a1.1,1.1,0,0,0-.142-.033.478.478,0,0,0-.1-.009h-.125a1.6,1.6,0,0,0-.592.1,1.1,1.1,0,0,0-.4.266,1.27,1.27,0,0,0-.258.4,3.01,3.01,0,0,0-.155.5l-.474,2.224H94.87Z" fill="#0055a5"/>
        <path id="Path_21" data-name="Path 21" d="M98.96,40.362a2.2,2.2,0,0,0-.075.6A1.1,1.1,0,0,0,99,41.44a.734.734,0,0,0,.307.317,1.1,1.1,0,0,0,.53.113,1.265,1.265,0,0,0,.7-.209A1.162,1.162,0,0,0,101,41h.783a3.533,3.533,0,0,1-.158.4,1.5,1.5,0,0,1-.383.479c-.056.05-.129.108-.221.175a1.689,1.689,0,0,1-.329.183,2.487,2.487,0,0,1-.441.141,2.445,2.445,0,0,1-.567.059,1.451,1.451,0,0,1-1.345-.575,2.105,2.105,0,0,1-.146-1.566,4.174,4.174,0,0,1,.408-1.12,2.242,2.242,0,0,1,.841-.846,1.476,1.476,0,0,1,.342-.166,2.847,2.847,0,0,1,.337-.092,2.258,2.258,0,0,1,.3-.042c.089-.006.164-.008.225-.008a1.981,1.981,0,0,1,.762.125,1.1,1.1,0,0,1,.454.329,1.113,1.113,0,0,1,.213.458,1.986,1.986,0,0,1,.041.517,3.245,3.245,0,0,1-.062.5c-.034.161-.061.3-.083.408Zm2.324-.55a2.836,2.836,0,0,0,.051-.362,1.069,1.069,0,0,0-.046-.405.68.68,0,0,0-.242-.329.881.881,0,0,0-.538-.137,1.427,1.427,0,0,0-.4.063,1.211,1.211,0,0,0-.4.208,1.59,1.59,0,0,0-.351.379,1.774,1.774,0,0,0-.241.583Z" fill="#0055a5"/>
        <path id="Path_22" data-name="Path 22" d="M103.509,38.612l.1-.483h.782l-.141.675c.033-.045.086-.108.158-.192a1.576,1.576,0,0,1,.288-.25,1.949,1.949,0,0,1,.441-.22,1.809,1.809,0,0,1,.621-.1,2.545,2.545,0,0,1,.387.041,1.168,1.168,0,0,1,.462.188.966.966,0,0,1,.342.429,1.242,1.242,0,0,1,.017.766l-.6,2.841h-.8l.567-2.657a1.835,1.835,0,0,0,.038-.392.541.541,0,0,0-.114-.325.708.708,0,0,0-.3-.212,1.062,1.062,0,0,0-.383-.071,1.28,1.28,0,0,0-.429.075,1.233,1.233,0,0,0-.4.233,1.547,1.547,0,0,0-.321.392,1.952,1.952,0,0,0-.212.549l-.508,2.408h-.784Z" fill="#0055a5"/>
        <path id="Path_23" data-name="Path 23" d="M111.964,36.305h.783l-1.133,5.34a1.108,1.108,0,0,0-.021.112l-.029.175c-.011.064-.022.129-.033.2s-.02.127-.025.183h-.784l.125-.666a2.55,2.55,0,0,1-.17.208,1.329,1.329,0,0,1-.295.233,2.139,2.139,0,0,1-.592.242,2.359,2.359,0,0,1-.508.067,2.055,2.055,0,0,1-.5-.076,1.194,1.194,0,0,1-.529-.3,1.359,1.359,0,0,1-.354-.642,2.37,2.37,0,0,1,.033-1.108,3.4,3.4,0,0,1,.375-1.029,2.717,2.717,0,0,1,.575-.708,2.226,2.226,0,0,1,.691-.412,2.13,2.13,0,0,1,.733-.134,1.487,1.487,0,0,1,.55.088,1.094,1.094,0,0,1,.342.2.787.787,0,0,1,.179.233c.036.078.062.139.079.184Zm-.791,3.857a2.2,2.2,0,0,0,.062-.729,1.266,1.266,0,0,0-.129-.437.828.828,0,0,0-.3-.3.99.99,0,0,0-.537-.129,1.16,1.16,0,0,0-.509.1,1.315,1.315,0,0,0-.374.266,1.8,1.8,0,0,0-.271.358,3.382,3.382,0,0,0-.188.384,2.689,2.689,0,0,0-.112.341c-.024.1-.04.177-.046.221a3.724,3.724,0,0,0-.074.562,1.377,1.377,0,0,0,.058.517.741.741,0,0,0,.27.375.919.919,0,0,0,.555.146,1.27,1.27,0,0,0,.758-.217,1.737,1.737,0,0,0,.474-.5,2.328,2.328,0,0,0,.254-.562C111.121,40.378,111.156,40.245,111.173,40.162Z" fill="#0055a5"/>
        <path id="Path_24" data-name="Path 24" d="M113.78,38.129h.783l-.891,4.182h-.784Zm.3-1.816h.941l-.183.858H113.9Z" fill="#0055a5"/>
        <path id="Path_25" data-name="Path 25" d="M114.887,41.5l2.825-2.782H115.6l.125-.592h3.008l-.141.666L115.662,41.7h2.307l-.132.608h-3.124Z" fill="#0055a5"/>
        <path id="Path_26" data-name="Path 26" d="M121.443,42.311a1.748,1.748,0,0,1,.009-.308c.011-.1.027-.206.05-.317a2.132,2.132,0,0,1-.4.408,1.81,1.81,0,0,1-.391.23,1.393,1.393,0,0,1-.358.1,2.254,2.254,0,0,1-.3.021,1.8,1.8,0,0,1-.616-.1,1.019,1.019,0,0,1-.408-.263.853.853,0,0,1-.2-.392,1.1,1.1,0,0,1,.009-.483,1.621,1.621,0,0,1,.088-.283,1.479,1.479,0,0,1,.178-.321,2.19,2.19,0,0,1,.292-.324,1.91,1.91,0,0,1,.433-.3,2.222,2.222,0,0,1,.4-.146,3.644,3.644,0,0,1,.416-.083c.139-.02.268-.032.388-.038s.221-.008.3-.008c.1,0,.188,0,.266,0s.178.01.3.021c.028-.128.05-.24.067-.338s.028-.18.034-.25a1.163,1.163,0,0,0,0-.187.306.306,0,0,0-.059-.15.444.444,0,0,0-.292-.216,1.406,1.406,0,0,0-.375-.059,1.116,1.116,0,0,0-.482.088.932.932,0,0,0-.292.2.742.742,0,0,0-.155.237c-.03.081-.05.141-.062.18H119.5a3.32,3.32,0,0,1,.141-.371,1.379,1.379,0,0,1,.651-.642,2.085,2.085,0,0,1,.375-.137,2.7,2.7,0,0,1,.382-.071A3.318,3.318,0,0,1,121.41,38a2.647,2.647,0,0,1,.445.038,1.835,1.835,0,0,1,.4.112,1.108,1.108,0,0,1,.317.192.592.592,0,0,1,.183.275.919.919,0,0,1,.046.345,2.949,2.949,0,0,1-.038.3l-.458,2a1.176,1.176,0,0,0-.024.134c-.012.072-.026.158-.046.258s-.038.208-.055.325-.027.228-.033.333Zm.342-2.033a1.991,1.991,0,0,0-.2-.021c-.065,0-.144,0-.238,0-.078,0-.2,0-.371.013a2.28,2.28,0,0,0-.524.091,1.509,1.509,0,0,0-.5.255.8.8,0,0,0-.3.491.684.684,0,0,0-.013.225.567.567,0,0,0,.083.237.53.53,0,0,0,.222.188.943.943,0,0,0,.416.075,1.255,1.255,0,0,0,.991-.45,1.458,1.458,0,0,0,.151-.208,1.222,1.222,0,0,0,.1-.225c.028-.084.056-.179.083-.288S121.746,40.423,121.785,40.278Z" fill="#0055a5"/>
        <path id="Path_27" data-name="Path 27" d="M124.209,42.636a.976.976,0,0,0-.013.325.535.535,0,0,0,.108.258.588.588,0,0,0,.259.171,1.31,1.31,0,0,0,.446.062,1.357,1.357,0,0,0,.662-.141,1.135,1.135,0,0,0,.413-.4,2.312,2.312,0,0,0,.254-.608c.063-.236.126-.5.187-.779a1.47,1.47,0,0,1-.408.4,2.033,2.033,0,0,1-.441.212,1.673,1.673,0,0,1-.4.084c-.122.008-.214.012-.274.012a2.48,2.48,0,0,1-.309-.021,1.565,1.565,0,0,1-.325-.075,1.169,1.169,0,0,1-.3-.154.85.85,0,0,1-.241-.266,1.421,1.421,0,0,1-.217-.717,3.5,3.5,0,0,1,.067-.825,3.234,3.234,0,0,1,.345-.928,2.483,2.483,0,0,1,.542-.659,2.184,2.184,0,0,1,1.42-.52,1.779,1.779,0,0,1,.526.066,1.159,1.159,0,0,1,.34.167.781.781,0,0,1,.2.208l.117.192.133-.575h.757l-.182.758-.559,2.616c-.056.25-.105.466-.149.65s-.088.341-.13.474a2.1,2.1,0,0,1-.137.346,2.232,2.232,0,0,1-.159.263,1.531,1.531,0,0,1-.425.4,2.032,2.032,0,0,1-.491.224,2.537,2.537,0,0,1-.508.1c-.173.017-.331.025-.474.025a3.246,3.246,0,0,1-.7-.062,1.556,1.556,0,0,1-.445-.162.679.679,0,0,1-.246-.238.929.929,0,0,1-.109-.287,1.032,1.032,0,0,1-.012-.3c.011-.1.025-.2.042-.3Zm1.116-.983a1.386,1.386,0,0,0,.588-.112,1.324,1.324,0,0,0,.412-.305,1.807,1.807,0,0,0,.154-.174,1.431,1.431,0,0,0,.138-.226,2.421,2.421,0,0,0,.129-.324,4.449,4.449,0,0,0,.12-.475,1.981,1.981,0,0,0,.051-.638.883.883,0,0,0-.155-.4.833.833,0,0,0-.337-.267,1.138,1.138,0,0,0-.483-.1,1.155,1.155,0,0,0-.634.166,1.534,1.534,0,0,0-.424.405,1.958,1.958,0,0,0-.258.5,3.673,3.673,0,0,0-.134.463,3.37,3.37,0,0,0-.063.5,1.263,1.263,0,0,0,.067.483.749.749,0,0,0,.275.362A.932.932,0,0,0,125.325,41.653Z" fill="#0055a5"/>
        <path id="Path_28" data-name="Path 28" d="M129.507,40.362a2.157,2.157,0,0,0-.075.6,1.1,1.1,0,0,0,.113.479.734.734,0,0,0,.307.317,1.1,1.1,0,0,0,.53.113,1.268,1.268,0,0,0,.7-.209,1.162,1.162,0,0,0,.462-.658h.783a3.533,3.533,0,0,1-.158.4,1.51,1.51,0,0,1-.383.479c-.056.05-.129.108-.221.175a1.689,1.689,0,0,1-.329.183,2.488,2.488,0,0,1-.441.141,2.445,2.445,0,0,1-.567.059,1.454,1.454,0,0,1-1.346-.575,2.11,2.11,0,0,1-.145-1.566,4.174,4.174,0,0,1,.408-1.12,2.242,2.242,0,0,1,.841-.846,1.476,1.476,0,0,1,.342-.166,2.847,2.847,0,0,1,.337-.092,2.258,2.258,0,0,1,.3-.042c.088-.006.164-.008.225-.008a1.981,1.981,0,0,1,.762.125,1.1,1.1,0,0,1,.454.329,1.127,1.127,0,0,1,.213.458,1.986,1.986,0,0,1,.041.517,3.129,3.129,0,0,1-.063.5c-.033.161-.06.3-.083.408Zm2.324-.55a2.837,2.837,0,0,0,.051-.362,1.07,1.07,0,0,0-.046-.405.676.676,0,0,0-.243-.329.876.876,0,0,0-.537-.137,1.422,1.422,0,0,0-.4.063,1.2,1.2,0,0,0-.4.208,1.59,1.59,0,0,0-.351.379,1.774,1.774,0,0,0-.241.583Z" fill="#0055a5"/>
        <path id="Path_29" data-name="Path 29" d="M134.006,38.687l.108-.558h.791l-.133.608a2.172,2.172,0,0,1,.412-.391,1.8,1.8,0,0,1,.4-.213,1.64,1.64,0,0,1,.362-.091,2.535,2.535,0,0,1,.3-.021,1.674,1.674,0,0,1,.566.079,1.1,1.1,0,0,1,.35.2.7.7,0,0,1,.191.254,2.165,2.165,0,0,1,.092.254c.05-.055.116-.128.2-.217a1.726,1.726,0,0,1,.317-.258,2.166,2.166,0,0,1,.45-.217,1.816,1.816,0,0,1,.607-.091,2.2,2.2,0,0,1,.48.058,1.1,1.1,0,0,1,.454.221.924.924,0,0,1,.291.454,1.537,1.537,0,0,1,0,.749l-.6,2.808h-.791l.567-2.683a1.567,1.567,0,0,0,.046-.412.874.874,0,0,0-.046-.22.7.7,0,0,0-.25-.255.886.886,0,0,0-.475-.112,1.176,1.176,0,0,0-.351.05,1.72,1.72,0,0,0-.283.116,1.24,1.24,0,0,0-.212.142,1.368,1.368,0,0,0-.137.133.979.979,0,0,0-.155.225,2.547,2.547,0,0,0-.108.254c-.03.087-.056.167-.074.242a1.332,1.332,0,0,0-.038.179l-.5,2.341h-.791l.591-2.766a.841.841,0,0,0-.087-.654.706.706,0,0,0-.638-.262,1.181,1.181,0,0,0-.366.054,1.516,1.516,0,0,0-.513.279c-.058.05-.1.092-.137.125a1.149,1.149,0,0,0-.242.416,4.123,4.123,0,0,0-.116.434l-.508,2.374h-.792Z" fill="#0055a5"/>
        <path id="Path_30" data-name="Path 30" d="M144.7,36.3h.833l-1.275,6.015h-.833Z" fill="#0055a5"/>
        <path id="Path_31" data-name="Path 31" d="M146.551,38.612l.1-.483h.782l-.141.675c.033-.045.086-.108.158-.192a1.576,1.576,0,0,1,.288-.25,1.949,1.949,0,0,1,.441-.22,1.809,1.809,0,0,1,.621-.1,2.545,2.545,0,0,1,.387.041,1.168,1.168,0,0,1,.462.188.966.966,0,0,1,.342.429,1.242,1.242,0,0,1,.017.766l-.6,2.841h-.8l.567-2.657a1.835,1.835,0,0,0,.038-.392.541.541,0,0,0-.114-.325.708.708,0,0,0-.3-.212,1.062,1.062,0,0,0-.383-.071,1.28,1.28,0,0,0-.429.075,1.233,1.233,0,0,0-.4.233,1.547,1.547,0,0,0-.321.392,1.952,1.952,0,0,0-.212.549l-.508,2.408h-.784Z" fill="#0055a5"/>
        <path id="Path_32" data-name="Path 32" d="M155.006,36.305h.783l-1.133,5.34a1.107,1.107,0,0,0-.021.112l-.029.175c-.011.064-.022.129-.033.2s-.02.127-.025.183h-.784l.125-.666a2.55,2.55,0,0,1-.17.208,1.329,1.329,0,0,1-.295.233,2.139,2.139,0,0,1-.592.242,2.359,2.359,0,0,1-.508.067,2.055,2.055,0,0,1-.5-.076,1.194,1.194,0,0,1-.529-.3,1.359,1.359,0,0,1-.354-.642,2.37,2.37,0,0,1,.033-1.108,3.4,3.4,0,0,1,.375-1.029,2.718,2.718,0,0,1,.575-.708,2.226,2.226,0,0,1,.691-.412,2.13,2.13,0,0,1,.733-.134,1.487,1.487,0,0,1,.55.088,1.094,1.094,0,0,1,.342.2.788.788,0,0,1,.179.233c.036.078.062.139.079.184Zm-.791,3.857a2.2,2.2,0,0,0,.062-.729,1.266,1.266,0,0,0-.129-.437.828.828,0,0,0-.3-.3.99.99,0,0,0-.537-.129,1.16,1.16,0,0,0-.509.1,1.315,1.315,0,0,0-.374.266,1.8,1.8,0,0,0-.271.358,3.383,3.383,0,0,0-.188.384,2.688,2.688,0,0,0-.112.341c-.024.1-.04.177-.046.221a3.724,3.724,0,0,0-.074.562,1.377,1.377,0,0,0,.058.517.741.741,0,0,0,.27.375.916.916,0,0,0,.555.146,1.27,1.27,0,0,0,.758-.217,1.737,1.737,0,0,0,.474-.5,2.327,2.327,0,0,0,.254-.562C154.163,40.378,154.2,40.245,154.215,40.162Z" fill="#0055a5"/>
        <path id="Path_33" data-name="Path 33" d="M157.53,38.129l-.575,2.691a1.855,1.855,0,0,0-.041.316.585.585,0,0,0,.058.3.526.526,0,0,0,.221.22.943.943,0,0,0,.454.088,1.6,1.6,0,0,0,.578-.109,1.217,1.217,0,0,0,.5-.358,1.082,1.082,0,0,0,.242-.408c.044-.144.078-.269.1-.375l.509-2.366h.807l-.724,3.4c-.006.022-.014.064-.026.125s-.021.131-.033.208-.024.159-.041.242-.031.152-.042.208h-.816l.133-.716a2.641,2.641,0,0,1-.192.241,1.379,1.379,0,0,1-.291.246,1.764,1.764,0,0,1-.425.191,1.931,1.931,0,0,1-.584.08,1.791,1.791,0,0,1-.653-.1.946.946,0,0,1-.408-.292.936.936,0,0,1-.184-.45,1.6,1.6,0,0,1,.03-.57l.6-2.808Z" fill="#0055a5"/>
        <path id="Path_34" data-name="Path 34" d="M161.728,41.07a1.057,1.057,0,0,0-.02.25.44.44,0,0,0,.083.245.578.578,0,0,0,.242.188,1.081,1.081,0,0,0,.445.075,1.652,1.652,0,0,0,.438-.054.8.8,0,0,0,.353-.212.745.745,0,0,0,.217-.392.457.457,0,0,0,0-.25.3.3,0,0,0-.133-.163,1.128,1.128,0,0,0-.262-.112c-.109-.033-.238-.067-.388-.1-.205-.05-.4-.1-.587-.158a1.582,1.582,0,0,1-.467-.217.75.75,0,0,1-.27-.341.93.93,0,0,1-.017-.534,1.329,1.329,0,0,1,.23-.52,1.536,1.536,0,0,1,.419-.4,2.123,2.123,0,0,1,.567-.254,2.451,2.451,0,0,1,.683-.092,2.861,2.861,0,0,1,.421.034,1.885,1.885,0,0,1,.412.108,1.153,1.153,0,0,1,.337.2.649.649,0,0,1,.2.308.923.923,0,0,1,.026.325,2.005,2.005,0,0,1-.05.283h-.8a.618.618,0,0,0,0-.37.422.422,0,0,0-.166-.209.6.6,0,0,0-.25-.087,1.908,1.908,0,0,0-.246-.017c-.027,0-.089,0-.184.008a1.11,1.11,0,0,0-.3.067.955.955,0,0,0-.3.179.615.615,0,0,0-.192.346.415.415,0,0,0,.016.237.381.381,0,0,0,.121.154.579.579,0,0,0,.171.088l.175.054c.273.067.5.123.675.171a4.429,4.429,0,0,1,.429.133,1.416,1.416,0,0,1,.258.125.858.858,0,0,1,.171.146.688.688,0,0,1,.166.371,1.212,1.212,0,0,1-.016.4,1.516,1.516,0,0,1-.3.634,1.611,1.611,0,0,1-.491.425,2.108,2.108,0,0,1-.642.224,3.8,3.8,0,0,1-.658.059,2.433,2.433,0,0,1-.6-.071,1.226,1.226,0,0,1-.474-.229.837.837,0,0,1-.275-.421,1.246,1.246,0,0,1,0-.637Z" fill="#0055a5"/>
        <path id="Path_35" data-name="Path 35" d="M165.427,38.112h.742l.182-.874.834-.25-.242,1.124h.934l-.125.575h-.934l-.533,2.508c-.005.05-.014.108-.025.175a.294.294,0,0,0,.159.324.623.623,0,0,0,.307.059,1.832,1.832,0,0,0,.226-.013.762.762,0,0,0,.158-.029l-.125.608c-.078.012-.171.022-.279.034s-.235.016-.379.016a1.2,1.2,0,0,1-.763-.187c-.146-.125-.184-.36-.112-.7l.592-2.791H165.3Z" fill="#0055a5"/>
        <path id="Path_36" data-name="Path 36" d="M168.7,38.979c.034-.144.059-.288.079-.429s.041-.282.063-.421h.791l-.158.808a1.538,1.538,0,0,1,.25-.366,1.392,1.392,0,0,1,.3-.246,1.5,1.5,0,0,1,.325-.146,1.907,1.907,0,0,1,.3-.067,2.51,2.51,0,0,1,.317-.025c.088,0,.166,0,.233.009l-.167.766a1.1,1.1,0,0,0-.142-.033.478.478,0,0,0-.1-.009h-.125a1.6,1.6,0,0,0-.592.1,1.1,1.1,0,0,0-.4.266,1.27,1.27,0,0,0-.258.4,3.009,3.009,0,0,0-.155.5l-.474,2.224h-.792Z" fill="#0055a5"/>
        <path id="Path_37" data-name="Path 37" d="M172.092,38.129h.783l-.892,4.182H171.2Zm.3-1.816h.942l-.184.858h-.941Z" fill="#0055a5"/>
        <path id="Path_38" data-name="Path 38" d="M176.056,42.311a1.848,1.848,0,0,1,.009-.308c.011-.1.028-.206.05-.317a2.159,2.159,0,0,1-.4.408,1.815,1.815,0,0,1-.392.23,1.4,1.4,0,0,1-.357.1,2.266,2.266,0,0,1-.3.021,1.788,1.788,0,0,1-.616-.1,1.023,1.023,0,0,1-.409-.263.863.863,0,0,1-.2-.392,1.1,1.1,0,0,1,.009-.483,1.711,1.711,0,0,1,.088-.283,1.444,1.444,0,0,1,.179-.321,2.135,2.135,0,0,1,.292-.324,1.9,1.9,0,0,1,.432-.3,2.2,2.2,0,0,1,.4-.146,3.559,3.559,0,0,1,.416-.083c.138-.02.267-.032.387-.038s.221-.008.3-.008c.1,0,.188,0,.267,0s.177.01.3.021c.029-.128.05-.24.067-.338s.028-.18.034-.25a1.167,1.167,0,0,0,0-.187.3.3,0,0,0-.059-.15.442.442,0,0,0-.292-.216,1.394,1.394,0,0,0-.375-.059,1.116,1.116,0,0,0-.482.088.932.932,0,0,0-.292.2.738.738,0,0,0-.154.237c-.031.081-.051.141-.063.18h-.783a3.152,3.152,0,0,1,.142-.371,1.411,1.411,0,0,1,.317-.421,1.44,1.44,0,0,1,.333-.221,2.085,2.085,0,0,1,.375-.137,2.685,2.685,0,0,1,.383-.071,3.3,3.3,0,0,1,.358-.021,2.638,2.638,0,0,1,.445.038,1.844,1.844,0,0,1,.4.112,1.117,1.117,0,0,1,.316.192.594.594,0,0,1,.184.275.961.961,0,0,1,.046.345c-.009.1-.022.2-.038.3l-.458,2a1.089,1.089,0,0,0-.025.134c-.012.072-.026.158-.046.258s-.038.208-.054.325-.028.228-.034.333Zm.342-2.033a1.962,1.962,0,0,0-.2-.021c-.064,0-.143,0-.237,0-.078,0-.2,0-.371.013a2.288,2.288,0,0,0-.525.091,1.529,1.529,0,0,0-.5.255.8.8,0,0,0-.3.491.684.684,0,0,0-.012.225.54.54,0,0,0,.083.237.533.533,0,0,0,.221.188.946.946,0,0,0,.416.075,1.257,1.257,0,0,0,.992-.45,1.528,1.528,0,0,0,.15-.208,1.294,1.294,0,0,0,.1-.225c.027-.084.055-.179.083-.288S176.359,40.423,176.4,40.278Z" fill="#0055a5"/>
        <path id="Path_39" data-name="Path 39" d="M179.43,36.305h.784l-1.275,6.006h-.783Z" fill="#0055a5"/>
      </g>
      <g id="Group_3" data-name="Group 3">
        <g id="Group_2" data-name="Group 2">
          <path id="Path_40" data-name="Path 40" d="M119.128,10.007,117.243,13.5l-2.784,5.16h5.567l-.812-8.653Z" fill="#0055a5"/>
          <path id="Path_41" data-name="Path 41" d="M33.847,1.67V5.942H40v.772H33.847v4.153H40v.773H33.847v4.283H40v.771H33.847v4.352H40v.773H33.847v4.168H40v.772H33.847v4.232h114.5V1.67ZM61.761,12.054H55.992a1.837,1.837,0,0,0-.359-1.846,2.766,2.766,0,0,0-2.082-.663,2.961,2.961,0,0,0-2.884,1.9c-.322,1.528,1.418,2.019,2.86,2.423,3.3.894,8.3,1.24,7.109,6.864C59.7,25.12,54.935,27.2,50.119,27.2c-4.845,0-8.817-1.417-7.7-7.071h5.769c-.442,1.961.769,3.029,2.846,3.029,1.331,0,3.177-.692,3.47-2.077.6-2.826-3.8-2.221-7.9-4.211-1.908-.922-2.538-2.827-2.062-5.076,1.278-4.932,5.893-6.287,10.248-6.287C59.084,5.508,63.17,7.036,61.761,12.054Zm17.675,6.259H70.149l-.937,4.413H79.306l-.86,4.038H62.583L67.01,5.94H82.873L82.29,8.682l-.277,1.3h-10.1L71,14.275h9.288ZM94.02,26.764l-3.676-15.95h-.058L86.9,26.764H81.706l.584-2.746L86.133,5.94h8.075l3.683,15.517.067-.058L101.246,5.94h5.191l-1.146,5.393L102.01,26.764Zm27.083,0-.519-4.067h-8.451l-2.221,4.067h-5.768l1.147-1.888,11.5-18.936h7.038l3.792,20.824Zm14.478,0h-5.768L134.241,5.94h5.768Zm12.762,0h-6.15v-.772h6.15Zm0-4.94h-6.15v-.773h6.15Zm0-5.125h-6.15v-.771h6.15Zm0-5.054h-6.15v-.773h6.15Zm0-4.926h-6.15V5.942h6.15Z" fill="#0055a5"/>
        </g>
      </g>
      <g id="Group_4" data-name="Group 4">
        <path id="Path_42" data-name="Path 42" d="M38.155,50.307a3.813,3.813,0,0,1,.889.115,1.438,1.438,0,0,1,.594.305,1.2,1.2,0,0,1,.337.5,2.222,2.222,0,0,1,0,1.393,1.1,1.1,0,0,1-.337.476,2.093,2.093,0,0,1-.464.287,2.008,2.008,0,0,1-.515.154c-.037.005-.075.011-.112.018a.618.618,0,0,1-.113.011,1.032,1.032,0,0,1-.111.006h-.112l-1.1-.014v1.821H35.676V50.307Zm-1.043,2.254h.657a1.012,1.012,0,0,0,.358-.031.671.671,0,0,0,.258-.137.66.66,0,0,0,.159-.213.646.646,0,0,0,.051-.263.56.56,0,0,0-.066-.28.473.473,0,0,0-.2-.189,1.174,1.174,0,0,0-.3-.105,1.849,1.849,0,0,0-.371-.035l-.546-.014Z" fill="#0055a5"/>
        <path id="Path_43" data-name="Path 43" d="M44.547,50.307V51.35H42.124v.994h2.261V53.4H42.124v.986h2.423v.995H40.689V50.307Z" fill="#0055a5"/>
        <path id="Path_44" data-name="Path 44" d="M46.807,50.307v4.018h2.262v1.051h-3.7V50.307Z" fill="#0055a5"/>
        <path id="Path_45" data-name="Path 45" d="M49.661,51.924a3.8,3.8,0,0,1,.389-.882,1.541,1.541,0,0,1,.791-.623,3.794,3.794,0,0,1,1.365-.21h.153a3.224,3.224,0,0,1,.875.161,3.074,3.074,0,0,1,.8.406,1.615,1.615,0,0,1,.57.788,3.765,3.765,0,0,1,.193,1.291c0,.07,0,.14,0,.21s-.008.143-.017.217l-.015.113c0,.037-.008.074-.013.111s-.018.082-.025.12-.015.074-.024.111a2.414,2.414,0,0,1-.263.638,3.057,3.057,0,0,1-.444.573,1.628,1.628,0,0,1-.7.407,3.549,3.549,0,0,1-1.033.132,4.079,4.079,0,0,1-1.33-.185,1.609,1.609,0,0,1-.8-.564,3.2,3.2,0,0,1-.617-1.673V53.03a.024.024,0,0,1-.006-.017V52.9A3.958,3.958,0,0,1,49.661,51.924Zm1.407,1.523a2.176,2.176,0,0,0,.221.542.978.978,0,0,0,.378.389,1.083,1.083,0,0,0,.539.129,1.05,1.05,0,0,0,.472-.1.887.887,0,0,0,.346-.312,1.491,1.491,0,0,0,.214-.514,3.182,3.182,0,0,0,.073-.725,2.726,2.726,0,0,0-.066-.619,1.956,1.956,0,0,0-.206-.536.915.915,0,0,0-.358-.371,1.065,1.065,0,0,0-.532-.126,1,1,0,0,0-.524.13.879.879,0,0,0-.344.388,2.7,2.7,0,0,0-.195.543,3.505,3.505,0,0,0-.092.591v-.014A2.407,2.407,0,0,0,51.068,53.447Z" fill="#0055a5"/>
        <path id="Path_46" data-name="Path 46" d="M61.419,50.307V51.35h-2.15v1.162h1.982V53.5H59.269v1.876H57.835V50.307Z" fill="#0055a5"/>
        <path id="Path_47" data-name="Path 47" d="M63.625,50.307v2.975a2.06,2.06,0,0,0,.055.5,1.243,1.243,0,0,0,.168.388.736.736,0,0,0,.308.252,1.1,1.1,0,0,0,.455.084,1.386,1.386,0,0,0,.519-.084.623.623,0,0,0,.314-.258,1.436,1.436,0,0,0,.161-.407,2.208,2.208,0,0,0,.057-.518V50.307H67.1v3.136a2.325,2.325,0,0,1-.146.848,1.975,1.975,0,0,1-.435.671,1.793,1.793,0,0,1-.766.438,3.942,3.942,0,0,1-1.138.143,3.29,3.29,0,0,1-1-.14,2.043,2.043,0,0,1-1.261-1.091,1.929,1.929,0,0,1-.164-.8V50.307Z" fill="#0055a5"/>
        <path id="Path_48" data-name="Path 48" d="M72.165,50.307V51.35h-1.6v4.026H69.19V51.35h-1.6V50.307Z" fill="#0055a5"/>
        <path id="Path_49" data-name="Path 49" d="M74.154,50.307v2.975a2.057,2.057,0,0,0,.056.5,1.2,1.2,0,0,0,.168.388.733.733,0,0,0,.307.252,1.1,1.1,0,0,0,.455.084,1.386,1.386,0,0,0,.519-.084.619.619,0,0,0,.314-.258,1.407,1.407,0,0,0,.161-.407,2.156,2.156,0,0,0,.057-.518V50.307h1.435v3.136a2.325,2.325,0,0,1-.147.848,1.973,1.973,0,0,1-.434.671,1.8,1.8,0,0,1-.767.438,3.932,3.932,0,0,1-1.138.143,3.29,3.29,0,0,1-1-.14,2.056,2.056,0,0,1-.773-.434,2.015,2.015,0,0,1-.487-.657,1.914,1.914,0,0,1-.165-.8V50.307Z" fill="#0055a5"/>
        <path id="Path_50" data-name="Path 50" d="M80.714,50.307a.041.041,0,0,0,.031.014h.1a3.652,3.652,0,0,1,.683.077,3.558,3.558,0,0,1,.626.2.942.942,0,0,1,.445.4,1.3,1.3,0,0,1,.151.654,1.5,1.5,0,0,1-.088.536.831.831,0,0,1-.27.367,1.588,1.588,0,0,1-.391.231,2.106,2.106,0,0,1-.462.133,1.369,1.369,0,0,1,.6.14.682.682,0,0,1,.323.365,3.829,3.829,0,0,1,.15.5,4.507,4.507,0,0,1,.088.538v.043a.017.017,0,0,0,.007.013q.014.113.024.228c.007.077.015.155.025.234a1.421,1.421,0,0,0,.042.214,1.983,1.983,0,0,0,.063.193H81.322a.609.609,0,0,1-.045-.133c-.012-.052-.022-.108-.031-.169l-.015-.185c-.005-.063-.009-.127-.013-.193v-.042a.021.021,0,0,1-.007-.017v-.1a3.825,3.825,0,0,0-.049-.389,2.694,2.694,0,0,0-.092-.354.451.451,0,0,0-.188-.251.614.614,0,0,0-.336-.084l-.659-.015v1.933H78.452V50.307Zm-.827,2.149h.553a.042.042,0,0,0,.031.014h.1a1.17,1.17,0,0,0,.245-.038,1.637,1.637,0,0,0,.232-.081.385.385,0,0,0,.161-.161.584.584,0,0,0,.055-.273.518.518,0,0,0-.055-.245.476.476,0,0,0-.168-.175,1.009,1.009,0,0,0-.252-.1,1.269,1.269,0,0,0-.3-.035l-.6-.014Z" fill="#0055a5"/>
        <path id="Path_51" data-name="Path 51" d="M83.566,51.924a3.8,3.8,0,0,1,.389-.882,1.541,1.541,0,0,1,.791-.623,3.794,3.794,0,0,1,1.365-.21h.153a3.224,3.224,0,0,1,.875.161,3.058,3.058,0,0,1,.8.406,1.617,1.617,0,0,1,.571.788,3.791,3.791,0,0,1,.192,1.291c0,.07,0,.14,0,.21s-.008.143-.017.217l-.014.113c0,.037-.009.074-.014.111s-.018.082-.024.12-.016.074-.025.111a2.379,2.379,0,0,1-.262.638,3.106,3.106,0,0,1-.445.573,1.628,1.628,0,0,1-.7.407,3.546,3.546,0,0,1-1.032.132,4.071,4.071,0,0,1-1.33-.185,1.612,1.612,0,0,1-.805-.564,3.292,3.292,0,0,1-.428-.794,3.232,3.232,0,0,1-.188-.879V53.03a.021.021,0,0,1-.007-.017V52.9A4.006,4.006,0,0,1,83.566,51.924Zm1.407,1.523a2.176,2.176,0,0,0,.221.542.991.991,0,0,0,.378.389,1.083,1.083,0,0,0,.539.129,1.057,1.057,0,0,0,.473-.1.885.885,0,0,0,.345-.312,1.491,1.491,0,0,0,.214-.514,3.178,3.178,0,0,0,.074-.725,2.726,2.726,0,0,0-.067-.619,1.955,1.955,0,0,0-.206-.536.919.919,0,0,0-.357-.371,1.072,1.072,0,0,0-.533-.126,1,1,0,0,0-.524.13.879.879,0,0,0-.344.388,2.7,2.7,0,0,0-.195.543,3.505,3.505,0,0,0-.092.591v-.014A2.454,2.454,0,0,0,84.973,53.447Z" fill="#0055a5"/>
        <path id="Path_52" data-name="Path 52" d="M93.945,50.307a4.888,4.888,0,0,1,1.449.207,1.76,1.76,0,0,1,.875.577,2.9,2.9,0,0,1,.445.833,3.129,3.129,0,0,1,.157.952v.1a.061.061,0,0,0-.007.028v.07a2.828,2.828,0,0,1-.214,1.043,1.75,1.75,0,0,1-.556.715,2.545,2.545,0,0,1-1.6.546H91.8V50.307Zm0,4.074a1.463,1.463,0,0,0,.606-.087,1.067,1.067,0,0,0,.43-.312,1.82,1.82,0,0,0,.273-.44,1.583,1.583,0,0,0,.119-.484v-.014a.055.055,0,0,1,.007-.021v-.175a.055.055,0,0,1-.007-.028v-.027c0-.024,0-.046,0-.067a.535.535,0,0,0-.011-.06,1.771,1.771,0,0,0-.15-.469,1.9,1.9,0,0,0-.291-.427,1.193,1.193,0,0,0-.413-.3,1.237,1.237,0,0,0-.5-.1l-.77-.014v3.031Z" fill="#0055a5"/>
        <path id="Path_53" data-name="Path 53" d="M97.575,51.924a3.8,3.8,0,0,1,.389-.882,1.542,1.542,0,0,1,.791-.623,3.794,3.794,0,0,1,1.365-.21h.153a3.224,3.224,0,0,1,.875.161,3.074,3.074,0,0,1,.8.406,1.615,1.615,0,0,1,.57.788,3.765,3.765,0,0,1,.193,1.291c0,.07,0,.14,0,.21s-.008.143-.017.217l-.014.113c-.005.037-.009.074-.014.111s-.018.082-.025.12-.015.074-.024.111a2.414,2.414,0,0,1-.263.638,3.056,3.056,0,0,1-.444.573,1.628,1.628,0,0,1-.7.407,3.546,3.546,0,0,1-1.032.132,4.081,4.081,0,0,1-1.331-.185,1.609,1.609,0,0,1-.8-.564,3.292,3.292,0,0,1-.428-.794,3.2,3.2,0,0,1-.188-.879V53.03a.021.021,0,0,1-.007-.017V52.9A3.959,3.959,0,0,1,97.575,51.924Zm1.407,1.523a2.176,2.176,0,0,0,.221.542.984.984,0,0,0,.378.389,1.083,1.083,0,0,0,.539.129,1.057,1.057,0,0,0,.473-.1.892.892,0,0,0,.345-.312,1.491,1.491,0,0,0,.214-.514,3.183,3.183,0,0,0,.073-.725,2.726,2.726,0,0,0-.066-.619,1.956,1.956,0,0,0-.206-.536.915.915,0,0,0-.358-.371,1.065,1.065,0,0,0-.532-.126,1,1,0,0,0-.524.13.879.879,0,0,0-.344.388,2.7,2.7,0,0,0-.195.543,3.505,3.505,0,0,0-.092.591v-.014A2.407,2.407,0,0,0,98.982,53.447Z" fill="#0055a5"/>
        <path id="Path_54" data-name="Path 54" d="M109.934,50.307V51.35h-1.6v4.026H106.96V51.35h-1.6V50.307Z" fill="#0055a5"/>
        <path id="Path_55" data-name="Path 55" d="M112.637,50.307a.045.045,0,0,0,.032.014h.1a3.652,3.652,0,0,1,.683.077,3.559,3.559,0,0,1,.626.2.942.942,0,0,1,.445.4,1.3,1.3,0,0,1,.151.654,1.5,1.5,0,0,1-.088.536.831.831,0,0,1-.27.367,1.588,1.588,0,0,1-.391.231,2.106,2.106,0,0,1-.462.133,1.369,1.369,0,0,1,.6.14.68.68,0,0,1,.322.365,3.683,3.683,0,0,1,.151.5,4.506,4.506,0,0,1,.088.538v.043a.017.017,0,0,0,.007.013c.008.075.017.151.024.228s.015.155.024.234a1.725,1.725,0,0,0,.042.214,1.983,1.983,0,0,0,.064.193h-1.541a.609.609,0,0,1-.045-.133c-.012-.052-.023-.108-.031-.169l-.015-.185c0-.063-.009-.127-.014-.193v-.042a.021.021,0,0,1-.007-.017v-.1a3.564,3.564,0,0,0-.048-.389,2.7,2.7,0,0,0-.092-.354.448.448,0,0,0-.189-.251.609.609,0,0,0-.336-.084l-.658-.015v1.933h-1.435V50.307Zm-.826,2.149h.553a.042.042,0,0,0,.031.014h.1a1.17,1.17,0,0,0,.245-.038,1.582,1.582,0,0,0,.231-.081.379.379,0,0,0,.161-.161.571.571,0,0,0,.056-.273.506.506,0,0,0-.056-.245.473.473,0,0,0-.167-.175,1.041,1.041,0,0,0-.252-.1,1.269,1.269,0,0,0-.3-.035l-.6-.014Z" fill="#0055a5"/>
        <path id="Path_56" data-name="Path 56" d="M118.8,50.307l1.989,5.069h-1.6l-.336-.938H116.88l-.329.938h-1.492l2.037-5.069Zm-.93,1.043-.665,2.045h1.266Z" fill="#0055a5"/>
        <path id="Path_57" data-name="Path 57" d="M123.607,50.307a1.018,1.018,0,0,0,.161.018l.232.01a2.139,2.139,0,0,1,.269.032,2.788,2.788,0,0,1,.283.066,1.586,1.586,0,0,1,.354.144,2.134,2.134,0,0,1,.325.22.891.891,0,0,1,.249.329,1.439,1.439,0,0,1,.109.462v.038l.006.011v.049a.983.983,0,0,1-.077.392,1.031,1.031,0,0,1-.223.329,1.165,1.165,0,0,1-.354.231,1.448,1.448,0,0,1-.452.1h.008v.008h.013a2.386,2.386,0,0,1,.427.164,2.591,2.591,0,0,1,.393.241.907.907,0,0,1,.276.354,1.225,1.225,0,0,1,.095.5,1.384,1.384,0,0,1-.134.634,1.043,1.043,0,0,1-.4.423,2.03,2.03,0,0,1-.652.231,4.7,4.7,0,0,1-.91.078h-2.261V50.307Zm-.112,1.981a.806.806,0,0,0,.28-.017.459.459,0,0,0,.19-.1.4.4,0,0,0,.1-.154.591.591,0,0,0,.035-.217.434.434,0,0,0-.042-.189.5.5,0,0,0-.119-.161.523.523,0,0,0-.2-.112.848.848,0,0,0-.252-.035l-.714-.014v.994Zm.056,2.093a.84.84,0,0,0,.277-.014.407.407,0,0,0,.185-.091.562.562,0,0,0,.12-.132.666.666,0,0,0,.062-.141v-.014a.021.021,0,0,1,.007-.013V53.94a.023.023,0,0,1,.008-.014v-.07a.052.052,0,0,1-.008-.024v-.018a.3.3,0,0,1-.01-.045.249.249,0,0,0-.017-.053.643.643,0,0,0-.075-.126.61.61,0,0,0-.115-.119.535.535,0,0,0-.164-.087.678.678,0,0,0-.214-.031l-.826-.015v1.043Z" fill="#0055a5"/>
        <path id="Path_58" data-name="Path 58" d="M129.718,50.307l1.989,5.069h-1.6l-.336-.938h-1.981l-.329.938h-1.492l2.037-5.069Zm-.93,1.043-.665,2.045h1.266Z" fill="#0055a5"/>
        <path id="Path_59" data-name="Path 59" d="M133.7,50.307v4.018h2.262v1.051h-3.7V50.307Z" fill="#0055a5"/>
        <path id="Path_60" data-name="Path 60" d="M137.994,50.307v2.037H139.7V50.307h1.435v5.069H139.7V53.338h-1.708v2.038h-1.435V50.307Z" fill="#0055a5"/>
        <path id="Path_61" data-name="Path 61" d="M142.009,51.924a3.8,3.8,0,0,1,.389-.882,1.546,1.546,0,0,1,.791-.623,3.8,3.8,0,0,1,1.365-.21h.154a3.238,3.238,0,0,1,.875.161,3.073,3.073,0,0,1,.8.406,1.615,1.615,0,0,1,.57.788,3.766,3.766,0,0,1,.192,1.291c0,.07,0,.14,0,.21s-.007.143-.016.217l-.015.113c0,.037-.009.074-.014.111s-.017.082-.024.12-.016.074-.024.111a2.414,2.414,0,0,1-.263.638,3.1,3.1,0,0,1-.444.573,1.631,1.631,0,0,1-.7.407,3.546,3.546,0,0,1-1.032.132,4.075,4.075,0,0,1-1.33-.185,1.616,1.616,0,0,1-.8-.564,3.288,3.288,0,0,1-.427-.794,3.233,3.233,0,0,1-.189-.879V53.03a.021.021,0,0,1-.007-.017V52.9A4.055,4.055,0,0,1,142.009,51.924Zm1.408,1.523a2.212,2.212,0,0,0,.22.542.991.991,0,0,0,.378.389,1.086,1.086,0,0,0,.539.129,1.057,1.057,0,0,0,.473-.1.887.887,0,0,0,.346-.312,1.491,1.491,0,0,0,.214-.514,3.241,3.241,0,0,0,.073-.725,2.726,2.726,0,0,0-.067-.619,1.924,1.924,0,0,0-.206-.536.913.913,0,0,0-.357-.371,1.065,1.065,0,0,0-.532-.126,1,1,0,0,0-.525.13.883.883,0,0,0-.343.388,2.705,2.705,0,0,0-.2.543,3.4,3.4,0,0,0-.091.591v-.014A2.407,2.407,0,0,0,143.417,53.447Z" fill="#0055a5"/>
      </g>
    </g>
  </g>
</svg>
